HIERARCHY
ROOT pelvis
{
  OFFSET 0 100 0
  CHANNELS 6 Xposition Yposition Zposition Zrotation Xrotation Yrotation
  JOINT pelvis_right_femur
  {
    OFFSET -10.78128 -3.44521 -0.5502486
    CHANNELS 3 Zrotation Xrotation Yrotation
    JOINT right_femur_tibia
    {
      OFFSET -0.8047443 -44.0398 -0.1307829
      CHANNELS 3 Zrotation Xrotation Yrotation
      JOINT right_tibia_foot
      {
        OFFSET 3.006224 -47.83518 -5
        CHANNELS 3 Zrotation Xrotation Yrotation
        End Site
        {
          OFFSET 0 -5 15
        }
      }
    }
  }
  JOINT pelvis_left_femur
  {
    OFFSET 10.78128 -3.44521 -0.5502486
    CHANNELS 3 Zrotation Xrotation Yrotation
    JOINT left_femur_tibia
    {
      OFFSET 0.8047443 -44.0398 -0.1307829
      CHANNELS 3 Zrotation Xrotation Yrotation
      JOINT left_tibia_foot
      {
        OFFSET -4.370144 -48.10324 -4.275266
        CHANNELS 3 Zrotation Xrotation Yrotation
        End Site
        {
          OFFSET 0 -5 15
        }
      }
    }
  }
  JOINT pelvis_spine1
  {
    OFFSET 0 6.468898 -3.129235
    CHANNELS 3 Zrotation Xrotation Yrotation
    JOINT spine1
    {
      OFFSET 0 23.15396 4.99043
      CHANNELS 3 Zrotation Xrotation Yrotation
      JOINT spine2
      {
        OFFSET 0 20.79997 -5.064912
        CHANNELS 3 Zrotation Xrotation Yrotation
        JOINT neck
        {
          OFFSET 0 14.38658 9.616178
          CHANNELS 3 Zrotation Xrotation Yrotation
          End Site
          {
            OFFSET 0 20 0
          }
        }
      }
      JOINT right_manubrium
      {
        OFFSET -5.722621 16.35077 3.967754
        CHANNELS 3 Zrotation Xrotation Yrotation
        JOINT right_clavicle
        {
          OFFSET -13.16364 1.694482 -4.693211
          CHANNELS 3 Zrotation Xrotation Yrotation
          JOINT right_humerus
          {
            OFFSET -28.5034 -0.3100689 -2.792744
            CHANNELS 3 Zrotation Xrotation Yrotation
            JOINT right_radius
            {
              OFFSET -25.15693 0.02248979 -1.271978
              CHANNELS 3 Zrotation Xrotation Yrotation
              End Site
              {
                OFFSET -15 0 0
              }
            }
          }
        }
      }
      JOINT left_manubrium
      {
        OFFSET 5.722621 16.35077 3.967754
        CHANNELS 3 Zrotation Xrotation Yrotation
        JOINT left_clavicle
        {
          OFFSET 13.16364 1.694482 -4.693211
          CHANNELS 3 Zrotation Xrotation Yrotation
          JOINT left_humerus
          {
            OFFSET 29.39168 -1.063119 -2.237045
            CHANNELS 3 Zrotation Xrotation Yrotation
            JOINT left_radius
            {
              OFFSET 24.59957 -0.9528479 0.9047498
              CHANNELS 3 Zrotation Xrotation Yrotation
              End Site
              {
                OFFSET 15 -0 -0
              }
            }
          }
        }
      }
    }
  }
}
MOTION
Frames: 15
Frame Time: 0.0416666666667
0 103.5113 0 0.8050836 -0.8500052 0.1093684 3.284221 -14.94943 8.131633 -0 36.56983 -0 -6.418671 -15.418 -2.460208 -7.173336 4.836851 -22.39804 -0 3.51129 -0 7.668504 -17.6918 26.36597 -1.7132 -2.326344 4.525436 2.880873 9.662522 -7.65046 0.6978106 21.50503 7.036257 4.139989 -26.78411 8.251025 5.163009 -20.07018 11.37797 86.44907 36.84287 -18.90742 -0 0 13.52029 -6.033897 6.251376 5.00147 6.229244 -21.74326 -1.34362 -95.37276 25.68063 25.00226 0 0 -16.26119 10.3624 17.21559 2.716973
0.444768 103.4392 1.079222 0.8214215 -0.7651431 0.2273098 3.457174 -16.63978 8.558037 -0 38.18731 -0 -6.416231 -15.12 -2.738465 -7.356775 6.664359 -23.03798 -0 4.830045 -0 7.86486 -17.9869 26.50603 -1.746107 -2.322362 4.530476 2.897874 9.534105 -7.58789 0.7132424 21.5534 7.049508 4.149954 -26.91445 8.31981 5.261417 -20.07814 11.32756 86.20355 37.07797 -18.67736 -0 0 13.63596 -5.659394 6.051844 4.938132 6.227099 -21.55836 -1.184305 -95.76186 26.02368 25.37369 0 0 -15.87772 10.24949 17.37759 2.924933
0.7787566 103.3454 2.596486 0.701778 -0.7916781 0.4533164 3.610166 -20.6877 7.757464 -0 36.77893 -0 -6.297814 -12.69499 -3.200591 -7.071352 10.59162 -22.24873 -0 5.812556 -0 6.979441 -19.0759 25.09984 -1.731969 -2.217143 4.404862 2.83887 9.651166 -7.80841 0.7229311 21.43299 7.132519 4.108638 -26.33134 8.296791 5.206204 -19.52825 11.36225 86.92691 36.73171 -19.70862 -0 0 12.96531 -6.84689 7.02222 5.057848 6.299 -21.92645 -1.507421 -94.30029 25.86702 23.48849 0 0 -17.66413 9.73744 16.63962 3.411145
1.058639 103.1187 4.368938 0.5796089 -0.6704025 0.7026321 3.749513 -22.68975 7.129097 -0 34.23605 -0 -6.409472 -11.81955 -3.307231 -6.79359 12.16456 -21.61171 -0 5.596838 -0 6.553334 -19.63008 24.27486 -1.739175 -2.167399 4.32685 2.828418 9.64926 -7.903247 0.7342794 21.39907 7.180878 4.094988 -26.12112 8.320848 5.220856 -19.24457 11.35346 87.21554 36.66656 -20.16829 -0 0 12.63346 -7.218861 7.38259 5.065964 6.342515 -22.04901 -1.597601 -93.73015 25.93591 22.66964 0 0 -18.41518 9.485593 16.36776 3.683427
1.280292 102.6385 6.595451 0.4009557 -0.5805064 0.9820236 3.825666 -24.85365 6.027582 -0 30.05169 -0 -6.538655 -10.5641 -3.371138 -6.357716 13.72802 -20.38458 -0 5.022142 -0 5.762828 -20.26065 22.96004 -1.749054 -2.111405 4.202398 2.833172 9.637737 -8.040771 0.7482148 21.36377 7.244739 4.082256 -25.89405 8.360948 5.242229 -18.86642 11.33568 87.62787 36.60043 -20.81556 -0 0 12.14514 -7.594827 7.781746 5.034487 6.410632 -22.22991 -1.705567 -93.00039 26.03211 21.58266 0 0 -19.40054 9.239407 16.06727 3.945666
1.45121 101.9176 9.300004 0.2325865 -0.5578613 1.290828 3.837124 -26.75435 4.912501 -0 26.01917 -0 -6.626801 -9.257938 -3.437717 -5.957968 15.12049 -19.09045 -0 4.71099 -0 4.872797 -20.77664 21.6007 -1.76105 -2.067631 4.071341 2.853945 9.609869 -8.172502 0.7611693 21.34235 7.304747 4.075737 -25.73665 8.40981 5.272106 -18.5167 11.31058 88.01366 36.57508 -21.4264 -0 0 11.6653 -7.817188 8.072036 4.964593 6.481831 -22.39735 -1.783063 -92.37731 26.15209 20.60713 0 0 -20.27192 9.073037 15.85118 4.125657
1.57381 100.9657 12.58808 0.06644103 -0.6572585 1.636009 3.762461 -28.57223 3.649082 -0 21.92822 -0 -6.634226 -7.605265 -3.548525 -5.56805 16.55672 -17.53486 -0 4.905099 -0 3.69705 -21.19663 19.98707 -1.774527 -2.024628 3.908517 2.889738 9.573608 -8.330885 0.7748597 21.32365 7.372784 4.071835 -25.59081 8.46994 5.306875 -18.11787 11.27865 88.47552 36.55557 -22.14897 -0 0 11.08679 -7.995368 8.352649 4.856174 6.569695 -22.60211 -1.864907 -91.6821 26.2842 19.4921 0 0 -21.26012 8.942204 15.64435 4.263606
1.654655 99.83176 16.53057 -0.08041128 -0.9009047 2.01777 3.624354 -30.12284 2.354135 -0 18.14636 -0 -6.548042 -5.707142 -3.718388 -5.227931 17.91987 -15.80862 -0 5.902422 -0 2.283013 -21.4175 18.21801 -1.786092 -1.984582 3.735757 2.93119 9.541747 -8.499281 0.787499 21.30521 7.440677 4.0689 -25.45224 8.529324 5.336279 -17.71228 11.24726 88.97019 36.52239 -22.908 -0 0 10.47607 -8.159137 8.622745 4.735778 6.662228 -22.82781 -1.953885 -90.96352 26.38787 18.33546 0 0 -22.28229 8.846451 15.44577 4.356423
1.702435 98.59917 21.19451 -0.1954053 -1.332795 2.429009 3.461981 -31.22464 1.104421 -0 14.874 -0 -6.347876 -3.591914 -3.971523 -4.950093 19.09423 -13.91035 -0 8.129285 -0 0.6147705 -21.31601 16.32275 -1.793931 -1.944426 3.563377 2.969808 9.523235 -8.672304 0.7989975 21.28256 7.506294 4.064235 -25.29868 8.581166 5.353772 -17.30763 11.22097 89.48643 36.45484 -23.68201 -0 0 9.856797 -8.364551 8.913378 4.626277 6.753608 -23.07071 -2.059385 -90.21249 26.43819 17.14355 0 0 -23.33751 8.761269 15.23025 4.428475
1.728416 97.40566 26.5977 -0.2579199 -1.984003 2.84829 3.365995 -31.56823 0.09263886 -0 12.49904 -0 -6.027628 -1.445941 -4.324624 -4.746379 19.83705 -11.94507 -0 12.09367 -0 -1.222735 -20.72444 14.45894 -1.794968 -1.904325 3.420987 2.991327 9.531116 -8.826178 0.8081766 21.25262 7.560357 4.054913 -25.11776 8.611924 5.348961 -16.95347 11.20801 89.95879 36.33464 -24.36751 -0 0 9.319033 -8.660915 9.233701 4.567507 6.827582 -23.30232 -2.182944 -89.49238 26.40079 16.04283 0 0 -24.32014 8.665818 14.98799 4.501441
1.742871 96.4455 32.68012 -0.2493438 -2.869991 3.23256 3.468671 -30.7543 -0.4302438 -0 11.38352 -0 -5.607251 0.4163124 -4.776645 -4.595701 19.78757 -10.06805 -0 18.34476 -0 -3.079908 -19.45274 12.86118 -1.786654 -1.862978 3.351726 2.97476 9.577892 -8.923889 0.8143692 21.21243 7.590943 4.036794 -24.8925 8.605666 5.312259 -16.71775 11.21762 90.28324 36.14921 -24.80911 -0 0 8.997028 -9.112152 9.595661 4.616577 6.860878 -23.47214 -2.320346 -88.90174 26.25191 15.2228 0 0 -25.06874 8.515845 14.7054 4.627053
1.748478 95.9498 39.26291 -0.1635887 -3.95506 3.510399 3.896734 -28.35412 -0.207068 -0 11.73771 -0 -5.16286 1.50505 -5.280049 -4.435636 18.48276 -8.510927 -0 27.20827 -0 -4.717857 -17.35187 11.84718 -1.767186 -1.818247 3.41446 2.892084 9.6744 -8.912221 0.8173548 21.16009 7.582655 4.00489 -24.60543 8.544136 5.235638 -16.69266 11.25963 90.31112 35.89428 -24.78957 -0 0 9.078377 -9.789371 10.00567 4.84853 6.822379 -23.50276 -2.458364 -88.58522 25.9824 14.95358 0 0 -25.34746 8.245804 14.36994 4.885945
1.733215 96.11958 46.03667 -0.02535914 -5.120832 3.582672 4.666689 -24.08774 0.860477 -0 13.32109 -0 -4.842761 1.24733 -5.717326 -4.175539 15.48419 -7.506108 -0 38.32928 -0 -5.8693 -14.42404 11.70761 -1.737032 -1.76545 3.666283 2.714625 9.823558 -8.736579 0.8183272 21.09529 7.522457 3.954359 -24.23748 8.41398 5.117365 -16.96113 11.34005 89.89623 35.57141 -24.09809 -0 0 9.747632 -10.76017 10.46945 5.338064 6.682752 -23.30896 -2.57717 -88.6824 25.60542 15.49154 0 0 -24.9234 7.77412 13.96478 5.381918
1.67475 97.0118 52.63063 0.1038142 -6.162338 3.34713 5.594765 -18.13287 2.527503 -0 15.25958 -0 -4.812521 -0.6962861 -5.922547 -3.752689 10.67607 -7.132315 -0 50.04989 -0 -6.360294 -10.97667 12.50974 -1.699807 -1.699963 4.121685 2.433112 10.01341 -8.377449 0.8197713 21.02138 7.409312 3.884383 -23.78397 8.218825 4.966011 -17.53685 11.45454 88.99999 35.18348 -22.67841 -0 0 11.05739 -12.03349 10.97845 6.106973 6.435815 -22.85246 -2.658942 -89.23649 25.15193 16.90033 0 0 -23.72228 7.058504 13.48064 6.174336
1.566749 98.44456 58.79109 0.1572196 -6.873269 2.755896 6.358549 -11.31025 4.184012 -0 16.3207 -0 -5.10421 -3.966368 -5.770636 -3.16426 4.564041 -7.1493 -0 59.35312 -0 -6.244476 -7.664578 13.9277 -1.661631 -1.622493 4.712084 2.080008 10.21573 -7.889028 0.8241079 20.9463 7.262521 3.802165 -23.27537 7.988256 4.800878 -18.31081 11.58471 87.78945 34.74196 -20.77215 -0 0 12.79961 -13.4973 11.49655 7.066761 6.118887 -22.20283 -2.70098 -90.10833 24.66556 18.88791 0 0 -21.98144 6.1647 12.93764 7.191643
